<svg width="235" height="89" viewBox="0 0 235 89" fill="none" xmlns="http://www.w3.org/2000/svg">
<path d="M40.3022 42.5835C40.3022 43.5631 40.4055 44.3574 40.5861 44.9399C40.7926 45.5223 41.0508 46.1578 41.4121 46.8461C41.5412 47.0579 41.5928 47.2697 41.5928 47.4551C41.5928 47.7198 41.4379 47.9846 41.1024 48.2494L39.4762 49.3613C39.2439 49.5202 39.0116 49.5996 38.8051 49.5996C38.547 49.5996 38.2889 49.4672 38.0308 49.229C37.6694 48.8318 37.3596 48.4082 37.1015 47.9846C36.8434 47.5345 36.5853 47.0315 36.3013 46.4225C34.288 48.8583 31.7584 50.0762 28.7126 50.0762C26.5444 50.0762 24.815 49.4408 23.5502 48.1699C22.2854 46.8991 21.6401 45.2046 21.6401 43.0865C21.6401 40.8361 22.4145 39.0092 23.989 37.6325C25.5636 36.2557 27.6543 35.5674 30.313 35.5674C31.1906 35.5674 32.094 35.6468 33.049 35.7792C34.0041 35.9115 34.9849 36.1234 36.0174 36.3616V34.4289C36.0174 32.4167 35.6044 31.0135 34.8043 30.1927C33.9783 29.372 32.5844 28.9748 30.5969 28.9748C29.6935 28.9748 28.7642 29.0807 27.8092 29.319C26.8542 29.5573 25.9249 29.8485 25.0215 30.2192C24.6085 30.4045 24.2988 30.5104 24.1181 30.5634C23.9374 30.6164 23.8083 30.6428 23.7051 30.6428C23.3437 30.6428 23.163 30.3781 23.163 29.8221V28.5247C23.163 28.1011 23.2147 27.7834 23.3437 27.5981C23.4728 27.4128 23.7051 27.2274 24.0665 27.0421C24.9699 26.5655 26.054 26.1684 27.3188 25.8507C28.5836 25.5065 29.9258 25.3476 31.3454 25.3476C34.4171 25.3476 36.6627 26.0625 38.1082 27.4922C39.5278 28.9219 40.2506 31.0929 40.2506 34.0053V42.5835H40.3022ZM29.8225 46.6078C30.6743 46.6078 31.5519 46.449 32.4812 46.1313C33.4104 45.8136 34.2364 45.2311 34.9333 44.4368C35.3463 43.9338 35.656 43.3778 35.8109 42.7423C35.9658 42.1069 36.069 41.3391 36.069 40.4389V39.3269C35.3205 39.1416 34.5203 38.9828 33.6943 38.8769C32.8684 38.771 32.0682 38.718 31.268 38.718C29.5386 38.718 28.2738 39.0622 27.422 39.777C26.5702 40.4919 26.1572 41.498 26.1572 42.8218C26.1572 44.0661 26.467 44.9928 27.1123 45.6282C27.7318 46.2901 28.6352 46.6078 29.8225 46.6078ZM50.5496 49.4673C50.0849 49.4673 49.7752 49.3878 49.5687 49.2025C49.3622 49.0436 49.1815 48.673 49.0267 48.1699L42.9608 27.704C42.806 27.1745 42.7285 26.8303 42.7285 26.645C42.7285 26.2213 42.935 25.9831 43.348 25.9831H45.8776C46.368 25.9831 46.7036 26.0625 46.8843 26.2478C47.0908 26.4067 47.2456 26.7773 47.4005 27.2804L51.7369 44.8075L55.7636 27.2804C55.8926 26.7509 56.0475 26.4067 56.254 26.2478C56.4605 26.089 56.8219 25.9831 57.2865 25.9831H59.3514C59.8419 25.9831 60.1774 26.0625 60.3839 26.2478C60.5904 26.4067 60.7711 26.7773 60.8744 27.2804L64.9526 45.0193L69.4181 27.2804C69.573 26.7509 69.7537 26.4067 69.9344 26.2478C70.1409 26.089 70.4764 25.9831 70.941 25.9831H73.3415C73.7545 25.9831 73.9868 26.1949 73.9868 26.645C73.9868 26.7773 73.961 26.9097 73.9352 27.0686C73.9094 27.2274 73.8578 27.4392 73.7545 27.7305L67.5338 48.1964C67.379 48.7259 67.1983 49.0701 66.9918 49.229C66.7853 49.3878 66.4497 49.4937 66.0109 49.4937H63.7911C63.3007 49.4937 62.9651 49.4143 62.7586 49.229C62.5521 49.0436 62.3715 48.6994 62.2682 48.1699L58.2673 31.0929L54.2923 48.1435C54.1632 48.673 54.0084 49.0172 53.8019 49.2025C53.5954 49.3878 53.234 49.4673 52.7694 49.4673H50.5496ZM83.718 50.1821C82.3757 50.1821 81.0335 50.0232 79.7429 49.7055C78.4523 49.3878 77.4457 49.0436 76.7745 48.6465C76.3615 48.4082 76.0776 48.1434 75.9744 47.9052C75.8711 47.6669 75.8195 47.4021 75.8195 47.1638V45.8136C75.8195 45.2576 76.026 44.9928 76.4132 44.9928C76.568 44.9928 76.7229 45.0193 76.8778 45.0722C77.0327 45.1252 77.265 45.2311 77.5231 45.337C78.4007 45.7341 79.3557 46.0518 80.3624 46.2637C81.3949 46.4755 82.4016 46.5814 83.434 46.5814C85.0602 46.5814 86.325 46.2901 87.2026 45.7077C88.0802 45.1252 88.5448 44.278 88.5448 43.1924C88.5448 42.4511 88.3125 41.8422 87.8479 41.3391C87.3833 40.8361 86.5057 40.386 85.2409 39.9624L81.4981 38.771C79.6139 38.162 78.22 37.2618 77.3682 36.0704C76.5164 34.9055 76.0776 33.6081 76.0776 32.2314C76.0776 31.1194 76.3099 30.1398 76.7745 29.2926C77.2392 28.4453 77.8586 27.704 78.633 27.1215C79.4074 26.5126 80.285 26.0625 81.3174 25.7448C82.3499 25.4271 83.434 25.2947 84.5698 25.2947C85.1376 25.2947 85.7313 25.3212 86.2992 25.4006C86.8928 25.48 87.4349 25.5859 87.9769 25.6918C88.4932 25.8242 88.9836 25.9566 89.4482 26.1154C89.9128 26.2743 90.2742 26.4331 90.5323 26.592C90.8937 26.8038 91.1518 27.0156 91.3067 27.2539C91.4616 27.4657 91.539 27.7569 91.539 28.1276V29.372C91.539 29.928 91.3325 30.2192 90.9453 30.2192C90.7388 30.2192 90.4033 30.1133 89.9645 29.9015C88.4932 29.2131 86.8412 28.8689 85.0086 28.8689C83.5373 28.8689 82.3757 29.1072 81.5756 29.6103C80.7754 30.1133 80.3624 30.8811 80.3624 31.9666C80.3624 32.708 80.6205 33.3434 81.1368 33.8464C81.653 34.3495 82.6081 34.8525 83.9761 35.3026L87.6414 36.494C89.4998 37.103 90.8421 37.9502 91.6422 39.0357C92.4424 40.1212 92.8296 41.3656 92.8296 42.7423C92.8296 43.8808 92.5973 44.9134 92.1585 45.8136C91.6939 46.7137 91.0744 47.508 90.2742 48.1435C89.474 48.8054 88.519 49.2819 87.4091 49.6261C86.2475 49.9968 85.0344 50.1821 83.718 50.1821Z" fill="white"/>
<path fill-rule="evenodd" clip-rule="evenodd" d="M88.5964 63.0494C80.1043 69.4831 67.7661 72.8985 57.1574 72.8985C42.2897 72.8985 28.8933 67.2591 18.775 57.8866C17.9748 57.1453 18.6975 56.1392 19.6526 56.7217C30.5969 63.2348 44.0965 67.1797 58.0608 67.1797C67.4822 67.1797 77.8328 65.1675 87.3574 61.0373C88.7771 60.3754 89.9903 61.9904 88.5964 63.0494Z" fill="#FF9900"/>
<path fill-rule="evenodd" clip-rule="evenodd" d="M92.1326 58.9191C91.0485 57.4894 84.9569 58.2308 82.195 58.575C81.369 58.6809 81.24 57.9395 81.9885 57.3835C86.8412 53.8887 94.8171 54.8948 95.7463 56.0597C96.6755 57.2512 95.4882 65.4322 90.9453 69.3507C90.2484 69.9596 89.5772 69.6419 89.887 68.8476C90.9195 66.2265 93.2167 60.3224 92.1326 58.9191Z" fill="#FF9900"/>
<path d="M113.267 39.7596C112.694 39.9985 112.004 40.118 111.199 40.118C110.394 40.118 109.78 39.9002 109.357 39.4645C108.934 39.0149 108.722 38.3684 108.722 37.5253V30.4427H106.798V29.5996L108.763 29.4099L108.927 26.3113H109.889V29.3888H113.164V30.4427H109.889V37.462C109.889 38.0381 110.005 38.4457 110.237 38.6846C110.483 38.9234 110.885 39.0429 111.445 39.0429C112.004 39.0429 112.612 38.9586 113.267 38.79V39.7596ZM115.443 39.9915V29.3888H116.466L116.589 30.9275C117.108 30.3373 117.613 29.9228 118.104 29.6839C118.609 29.4309 119.175 29.3045 119.803 29.3045C120.035 29.3045 120.315 29.3255 120.642 29.3677V30.4427C120.287 30.4146 119.967 30.4006 119.68 30.4006C119.052 30.4006 118.493 30.52 118.001 30.7589C117.524 30.9978 117.06 31.3843 116.61 31.9183V39.9915H115.443ZM128.681 39.9915L128.579 38.7689C127.406 39.7385 126.177 40.2234 124.895 40.2234C123.953 40.2234 123.203 39.9493 122.643 39.4013C122.097 38.8391 121.824 38.0944 121.824 37.1669C121.824 36.141 122.165 35.333 122.848 34.7428C123.53 34.1526 124.458 33.8575 125.632 33.8575C126.546 33.8575 127.522 34.0191 128.559 34.3423V32.5717C128.559 31.7145 128.361 31.1032 127.965 30.7378C127.569 30.3584 126.914 30.1687 126 30.1687C124.908 30.1687 123.742 30.3935 122.5 30.8432V29.8525C123.018 29.6136 123.605 29.4239 124.26 29.2834C124.915 29.1429 125.557 29.0726 126.184 29.0726C127.385 29.0726 128.272 29.3326 128.845 29.8525C129.432 30.3725 129.725 31.1594 129.725 32.2134V39.9915H128.681ZM125.058 39.1273C125.577 39.1273 126.136 39.0219 126.737 38.8111C127.337 38.5862 127.945 38.2771 128.559 37.8836V35.2487C127.644 34.9958 126.757 34.8693 125.898 34.8693C123.987 34.8693 123.032 35.6281 123.032 37.1458C123.032 37.7923 123.203 38.2841 123.544 38.6214C123.885 38.9586 124.39 39.1273 125.058 39.1273ZM132.956 39.9915V29.3888H134.123V39.9915H132.956ZM133.549 27.1123C133.277 27.1123 133.058 27.0279 132.894 26.8593C132.744 26.6907 132.669 26.4658 132.669 26.1848C132.669 25.9037 132.744 25.6789 132.894 25.5103C133.058 25.3416 133.277 25.2573 133.549 25.2573C133.822 25.2573 134.034 25.3416 134.184 25.5103C134.348 25.6789 134.43 25.9037 134.43 26.1848C134.43 26.4658 134.348 26.6907 134.184 26.8593C134.034 27.0279 133.822 27.1123 133.549 27.1123ZM144.699 39.9915V32.7825C144.699 31.8691 144.529 31.2086 144.188 30.8011C143.846 30.3795 143.301 30.1687 142.55 30.1687C141.185 30.1687 139.855 30.6184 138.558 31.5178V39.9915H137.392V29.3888H138.415L138.538 30.6114C139.207 30.1195 139.909 29.7401 140.646 29.4731C141.383 29.2061 142.1 29.0726 142.796 29.0726C143.792 29.0726 144.549 29.3466 145.068 29.8947C145.6 30.4287 145.866 31.2226 145.866 32.2766V39.9915H144.699ZM149.108 39.9915V29.3888H150.274V39.9915H149.108ZM149.701 27.1123C149.428 27.1123 149.21 27.0279 149.046 26.8593C148.896 26.6907 148.821 26.4658 148.821 26.1848C148.821 25.9037 148.896 25.6789 149.046 25.5103C149.21 25.3416 149.428 25.2573 149.701 25.2573C149.974 25.2573 150.186 25.3416 150.336 25.5103C150.5 25.6789 150.581 25.9037 150.581 26.1848C150.581 26.4658 150.5 26.6907 150.336 26.8593C150.186 27.0279 149.974 27.1123 149.701 27.1123ZM160.851 39.9915V32.7825C160.851 31.8691 160.681 31.2086 160.339 30.8011C159.998 30.3795 159.453 30.1687 158.702 30.1687C157.337 30.1687 156.007 30.6184 154.71 31.5178V39.9915H153.544V29.3888H154.567L154.69 30.6114C155.359 30.1195 156.061 29.7401 156.798 29.4731C157.535 29.2061 158.252 29.0726 158.948 29.0726C159.944 29.0726 160.701 29.3466 161.22 29.8947C161.752 30.4287 162.018 31.2226 162.018 32.2766V39.9915H160.851ZM172.424 38.4316C171.919 38.8673 171.359 39.2116 170.745 39.4645C170.131 39.7175 169.545 39.8439 168.985 39.8439C167.675 39.8439 166.624 39.3661 165.833 38.4106C165.041 37.4409 164.645 36.1621 164.645 34.5742C164.645 32.8738 165.034 31.5318 165.812 30.5481C166.604 29.5644 167.675 29.0726 169.026 29.0726C170.309 29.0726 171.448 29.5434 172.444 30.4849L172.567 29.3888H173.591V39.5067C173.591 41.1649 173.181 42.4225 172.362 43.2798C171.544 44.151 170.356 44.5867 168.801 44.5867C167.504 44.5867 166.392 44.3197 165.464 43.7857V42.795C166.61 43.2587 167.702 43.4906 168.739 43.4906C170.008 43.4906 170.936 43.1674 171.523 42.521C172.124 41.8745 172.424 40.8557 172.424 39.4645V38.4316ZM169.251 38.7478C170.275 38.7478 171.332 38.2982 172.424 37.3988V31.5388C171.864 31.061 171.325 30.7168 170.807 30.506C170.288 30.2811 169.736 30.1687 169.149 30.1687C168.057 30.1687 167.231 30.5341 166.672 31.2648C166.126 31.9955 165.853 33.0776 165.853 34.511C165.853 35.8881 166.14 36.942 166.713 37.6728C167.3 38.3895 168.146 38.7478 169.251 38.7478ZM188.351 39.9915L188.249 38.7689C187.075 39.7385 185.847 40.2234 184.565 40.2234C183.623 40.2234 182.872 39.9493 182.313 39.4013C181.767 38.8391 181.494 38.0944 181.494 37.1669C181.494 36.141 181.835 35.333 182.518 34.7428C183.2 34.1526 184.128 33.8575 185.301 33.8575C186.216 33.8575 187.191 34.0191 188.229 34.3423V32.5717C188.229 31.7145 188.031 31.1032 187.635 30.7378C187.239 30.3584 186.584 30.1687 185.67 30.1687C184.578 30.1687 183.411 30.3935 182.17 30.8432V29.8525C182.688 29.6136 183.275 29.4239 183.93 29.2834C184.585 29.1429 185.226 29.0726 185.854 29.0726C187.055 29.0726 187.942 29.3326 188.515 29.8525C189.102 30.3725 189.395 31.1594 189.395 32.2134V39.9915H188.351ZM184.728 39.1273C185.247 39.1273 185.806 39.0219 186.407 38.8111C187.007 38.5862 187.615 38.2771 188.229 37.8836V35.2487C187.314 34.9958 186.427 34.8693 185.568 34.8693C183.657 34.8693 182.702 35.6281 182.702 37.1458C182.702 37.7923 182.872 38.2841 183.214 38.6214C183.555 38.9586 184.06 39.1273 184.728 39.1273ZM199.852 39.9915V32.7825C199.852 31.8691 199.681 31.2086 199.34 30.8011C198.999 30.3795 198.453 30.1687 197.702 30.1687C196.338 30.1687 195.007 30.6184 193.711 31.5178V39.9915H192.544V29.3888H193.567L193.69 30.6114C194.359 30.1195 195.062 29.7401 195.799 29.4731C196.535 29.2061 197.252 29.0726 197.948 29.0726C198.944 29.0726 199.701 29.3466 200.22 29.8947C200.752 30.4287 201.018 31.2226 201.018 32.2766V39.9915H199.852ZM211.629 39.9915L211.506 38.8111C211.001 39.2467 210.435 39.591 209.807 39.8439C209.193 40.0969 208.599 40.2234 208.026 40.2234C206.675 40.2234 205.604 39.7385 204.813 38.7689C204.035 37.7852 203.646 36.4432 203.646 34.7428C203.646 33.0003 204.041 31.6231 204.833 30.6114C205.625 29.5855 206.702 29.0726 208.067 29.0726C209.336 29.0726 210.483 29.5363 211.506 30.4638V24.3931H212.673V39.9915H211.629ZM208.292 39.1273C209.316 39.1273 210.387 38.6776 211.506 37.7782V31.5388C210.933 31.061 210.38 30.7168 209.848 30.506C209.33 30.2811 208.777 30.1687 208.19 30.1687C207.098 30.1687 206.266 30.5481 205.693 31.307C205.133 32.0658 204.853 33.19 204.853 34.6796C204.853 37.6447 206 39.1273 208.292 39.1273Z" fill="white"/>
<path d="M114.434 60.7121C113.588 61.1056 112.735 61.3023 111.875 61.3023C110.292 61.3023 109.091 60.8385 108.273 59.9111C107.454 58.9695 107.044 57.5924 107.044 55.7796C107.044 53.9809 107.461 52.6108 108.293 51.6692C109.126 50.7137 110.333 50.2358 111.916 50.2358C112.762 50.2358 113.561 50.4045 114.311 50.7417V51.7324C113.561 51.4795 112.783 51.353 111.978 51.353C110.681 51.353 109.74 51.6973 109.153 52.3859C108.58 53.0604 108.293 54.1495 108.293 55.6531V55.9061C108.293 57.3675 108.586 58.4496 109.173 59.1522C109.76 59.8409 110.681 60.1851 111.937 60.1851C112.687 60.1851 113.52 60.0306 114.434 59.7214V60.7121ZM117.272 55.9693C117.286 57.4448 117.599 58.534 118.214 59.2365C118.828 59.9391 119.776 60.2905 121.059 60.2905C122.232 60.2905 123.358 60.0445 124.436 59.5527V60.5434C123.467 61.1056 122.314 61.3866 120.977 61.3866C119.353 61.3866 118.132 60.9159 117.313 59.9743C116.494 59.0188 116.085 57.6065 116.085 55.7374C116.085 53.9668 116.494 52.5967 117.313 51.627C118.145 50.6433 119.305 50.1515 120.793 50.1515C122.034 50.1515 122.983 50.5168 123.638 51.2476C124.307 51.9784 124.641 53.0252 124.641 54.3884C124.641 55.0208 124.6 55.5477 124.518 55.9693H117.272ZM120.69 51.2265C118.534 51.2265 117.395 52.4843 117.272 54.9997H123.495C123.508 54.803 123.515 54.5711 123.515 54.3041C123.515 53.2923 123.276 52.5265 122.799 52.0065C122.321 51.4865 121.618 51.2265 120.69 51.2265ZM127.416 61.0704V50.4677H128.44L128.563 52.0065C129.081 51.4163 129.586 51.0017 130.077 50.7628C130.582 50.5099 131.148 50.3834 131.776 50.3834C132.008 50.3834 132.288 50.4045 132.616 50.4466V51.5216C132.261 51.4936 131.94 51.4795 131.653 51.4795C131.026 51.4795 130.466 51.599 129.975 51.8378C129.497 52.0767 129.033 52.4632 128.583 52.9972V61.0704H127.416ZM140.297 60.8385C139.724 61.0774 139.035 61.1969 138.23 61.1969C137.425 61.1969 136.811 60.9791 136.388 60.5434C135.965 60.0938 135.753 59.4473 135.753 58.6042V51.5216H133.829V50.6785L135.794 50.4888L135.958 47.3902H136.92V50.4677H140.195V51.5216H136.92V58.5409C136.92 59.1171 137.036 59.5247 137.268 59.7635C137.514 60.0024 137.916 60.1219 138.476 60.1219C139.035 60.1219 139.642 60.0375 140.297 59.8689V60.8385ZM142.76 61.0704V50.4677H143.927V61.0704H142.76ZM143.354 48.1912C143.081 48.1912 142.862 48.1069 142.699 47.9382C142.548 47.7696 142.473 47.5447 142.473 47.2637C142.473 46.9827 142.548 46.7578 142.699 46.5892C142.862 46.4205 143.081 46.3362 143.354 46.3362C143.627 46.3362 143.838 46.4205 143.988 46.5892C144.152 46.7578 144.234 46.9827 144.234 47.2637C144.234 47.5447 144.152 47.7696 143.988 47.9382C143.838 48.1069 143.627 48.1912 143.354 48.1912ZM148.26 61.0704V51.5216H146.254V50.6785L148.26 50.4888V48.0647C148.26 47.1231 148.499 46.4064 148.977 45.9146C149.454 45.4228 150.137 45.1769 151.024 45.1769C151.351 45.1769 151.686 45.2121 152.027 45.2823C152.382 45.3385 152.682 45.4157 152.927 45.5141V46.5049C152.245 46.3503 151.658 46.273 151.167 46.273C150.553 46.273 150.109 46.4064 149.836 46.6735C149.564 46.9264 149.427 47.348 149.427 47.9382V50.4677H156.1V61.0704H154.933V51.5216H149.427V61.0704H148.26ZM155.527 48.1912C155.254 48.1912 155.036 48.1069 154.872 47.9382C154.722 47.7696 154.647 47.5447 154.647 47.2637C154.647 46.9827 154.722 46.7578 154.872 46.5892C155.036 46.4205 155.254 46.3362 155.527 46.3362C155.8 46.3362 156.011 46.4205 156.162 46.5892C156.325 46.7578 156.407 46.9827 156.407 47.2637C156.407 47.5447 156.325 47.7696 156.162 47.9382C156.011 48.1069 155.8 48.1912 155.527 48.1912ZM166.437 60.7121C165.59 61.1056 164.738 61.3023 163.878 61.3023C162.295 61.3023 161.094 60.8385 160.275 59.9111C159.456 58.9695 159.047 57.5924 159.047 55.7796C159.047 53.9809 159.463 52.6108 160.296 51.6692C161.128 50.7137 162.336 50.2358 163.919 50.2358C164.765 50.2358 165.563 50.4045 166.314 50.7417V51.7324C165.563 51.4795 164.785 51.353 163.98 51.353C162.684 51.353 161.742 51.6973 161.155 52.3859C160.582 53.0604 160.296 54.1495 160.296 55.6531V55.9061C160.296 57.3675 160.589 58.4496 161.176 59.1522C161.763 59.8409 162.684 60.1851 163.939 60.1851C164.69 60.1851 165.522 60.0306 166.437 59.7214V60.7121ZM175.221 61.0704L175.119 59.8478C173.946 60.8175 172.717 61.3023 171.435 61.3023C170.493 61.3023 169.743 61.0283 169.183 60.4802C168.637 59.9181 168.364 59.1733 168.364 58.2458C168.364 57.2199 168.705 56.412 169.388 55.8218C170.07 55.2315 170.998 54.9364 172.171 54.9364C173.086 54.9364 174.062 55.0981 175.099 55.4213V53.6506C175.099 52.7934 174.901 52.1821 174.505 51.8168C174.109 51.4373 173.454 51.2476 172.54 51.2476C171.448 51.2476 170.281 51.4725 169.04 51.9221V50.9314C169.558 50.6926 170.145 50.5029 170.8 50.3623C171.455 50.2217 172.097 50.1515 172.724 50.1515C173.925 50.1515 174.812 50.4114 175.385 50.9314C175.972 51.4514 176.265 52.2383 176.265 53.2923V61.0704H175.221ZM171.598 60.2062C172.117 60.2062 172.676 60.1008 173.277 59.89C173.877 59.6651 174.485 59.356 175.099 58.9625V56.3276C174.184 56.0747 173.297 55.9482 172.438 55.9482C170.527 55.9482 169.572 56.7071 169.572 58.2248C169.572 58.8712 169.743 59.363 170.084 59.7003C170.425 60.0375 170.93 60.2062 171.598 60.2062ZM184.859 60.8385C184.286 61.0774 183.597 61.1969 182.791 61.1969C181.986 61.1969 181.372 60.9791 180.949 60.5434C180.526 60.0938 180.315 59.4473 180.315 58.6042V51.5216H178.39V50.6785L180.356 50.4888L180.519 47.3902H181.481V50.4677H184.756V51.5216H181.481V58.5409C181.481 59.1171 181.597 59.5247 181.829 59.7635C182.075 60.0024 182.478 60.1219 183.037 60.1219C183.597 60.1219 184.204 60.0375 184.859 59.8689V60.8385ZM187.321 61.0704V50.4677H188.488V61.0704H187.321ZM187.915 48.1912C187.642 48.1912 187.424 48.1069 187.26 47.9382C187.11 47.7696 187.035 47.5447 187.035 47.2637C187.035 46.9827 187.11 46.7578 187.26 46.5892C187.424 46.4205 187.642 46.3362 187.915 46.3362C188.188 46.3362 188.4 46.4205 188.55 46.5892C188.713 46.7578 188.795 46.9827 188.795 47.2637C188.795 47.5447 188.713 47.7696 188.55 47.9382C188.4 48.1069 188.188 48.1912 187.915 48.1912ZM196.179 61.3866C194.678 61.3866 193.511 60.8948 192.679 59.9111C191.846 58.9134 191.43 57.5291 191.43 55.7585C191.43 53.9879 191.846 52.6108 192.679 51.627C193.511 50.6433 194.678 50.1515 196.179 50.1515C197.68 50.1515 198.847 50.6433 199.679 51.627C200.511 52.6108 200.928 53.9879 200.928 55.7585C200.928 57.5291 200.511 58.9134 199.679 59.9111C198.847 60.8948 197.68 61.3866 196.179 61.3866ZM196.179 60.2905C198.54 60.2905 199.72 58.7798 199.72 55.7585C199.72 52.7512 198.54 51.2476 196.179 51.2476C193.818 51.2476 192.638 52.7512 192.638 55.7585C192.638 58.7798 193.818 60.2905 196.179 60.2905ZM211.108 61.0704V53.8614C211.108 52.948 210.938 52.2875 210.597 51.88C210.256 51.4584 209.71 51.2476 208.959 51.2476C207.595 51.2476 206.264 51.6973 204.968 52.5967V61.0704H203.801V50.4677H204.824L204.947 51.6903C205.616 51.1985 206.319 50.8191 207.055 50.552C207.792 50.285 208.509 50.1515 209.205 50.1515C210.201 50.1515 210.958 50.4255 211.477 50.9736C212.009 51.5075 212.275 52.3016 212.275 53.3555V61.0704H211.108Z" fill="white"/>
</svg>
